# Exported from ProBuilder
# http://www.procore3d.com/probuilder
# 2/6/2019 2:19:03 PM

mtllib ./cylinder-side.mtl
o cylinder-side

g Cylinder
v -0.5 0 0
v -0.5 1 0
v -0.4619398 0 0.1913417
v -0.4619398 1 0.1913417
v -0.4619398 0 0.1913417
v -0.4619398 1 0.1913417
v -0.3535534 0 0.3535534
v -0.3535534 1 0.3535534
v -0.3535534 0 0.3535534
v -0.3535534 1 0.3535534
v -0.1913417 0 0.4619398
v -0.1913417 1 0.4619398
v -0.1913417 0 0.4619398
v -0.1913417 1 0.4619398
v 2.185569E-08 0 0.5
v 2.185569E-08 1 0.5
v 2.185569E-08 0 0.5
v 2.185569E-08 1 0.5
v 0.1913417 0 0.4619398
v 0.1913417 1 0.4619398
v 0.1913417 0 0.4619398
v 0.1913417 1 0.4619398
v 0.3535534 0 0.3535534
v 0.3535534 1 0.3535534
v 0.3535534 0 0.3535534
v 0.3535534 1 0.3535534
v 0.4619398 0 0.1913417
v 0.4619398 1 0.1913417
v 0.4619398 0 0.1913417
v 0.4619398 1 0.1913417
v 0.5 0 -4.371139E-08
v 0.5 1 -4.371139E-08
v 0.5 0 -4.371139E-08
v 0.5 1 -4.371139E-08
v 0.4619398 0 -0.1913417
v 0.4619398 1 -0.1913417
v 0.4619398 0 -0.1913417
v 0.4619398 1 -0.1913417
v 0.3535534 0 -0.3535534
v 0.3535534 1 -0.3535534
v 0.3535534 0 -0.3535534
v 0.3535534 1 -0.3535534
v 0.1913418 0 -0.4619398
v 0.1913418 1 -0.4619398
v 0.1913418 0 -0.4619398
v 0.1913418 1 -0.4619398
v -5.96244E-09 0 -0.5
v -5.96244E-09 1 -0.5
v -5.96244E-09 0 -0.5
v -5.96244E-09 1 -0.5
v -0.1913418 0 -0.4619397
v -0.1913418 1 -0.4619397
v -0.1913418 0 -0.4619397
v -0.1913418 1 -0.4619397
v -0.3535533 0 -0.3535534
v -0.3535533 1 -0.3535534
v -0.3535533 0 -0.3535534
v -0.3535533 1 -0.3535534
v -0.4619398 0 -0.1913417
v -0.4619398 1 -0.1913417
v -0.4619398 0 -0.1913417
v -0.4619398 1 -0.1913417
v -0.5 0 0
v -0.5 1 0

vn -0.9807853 0 6.705523E-08
vn -0.9807853 0 6.705523E-08
vn -0.9061275 0 0.3753303
vn -0.9061275 0 0.3753303
vn -0.9061275 0 0.3753303
vn -0.9061275 0 0.3753303
vn -0.6935199 0 0.6935199
vn -0.6935199 0 0.6935199
vn -0.6935199 0 0.6935199
vn -0.6935199 0 0.6935199
vn -0.3753303 0 0.9061275
vn -0.3753303 0 0.9061275
vn -0.3753303 0 0.9061275
vn -0.3753303 0 0.9061275
vn -4.470348E-08 0 0.9807853
vn -4.470348E-08 0 0.9807853
vn -4.470348E-08 0 0.9807853
vn -4.470348E-08 0 0.9807853
vn 0.3753303 0 0.9061275
vn 0.3753303 0 0.9061275
vn 0.3753303 0 0.9061275
vn 0.3753303 0 0.9061275
vn 0.6935199 0 0.6935199
vn 0.6935199 0 0.6935199
vn 0.6935199 0 0.6935199
vn 0.6935199 0 0.6935199
vn 0.9061274 0 0.3753303
vn 0.9061274 0 0.3753303
vn 0.9061274 0 0.3753303
vn 0.9061274 0 0.3753303
vn 0.9807853 0 -6.705523E-08
vn 0.9807853 0 -6.705523E-08
vn 0.9807853 0 -6.705523E-08
vn 0.9807853 0 -6.705523E-08
vn 0.9061275 0 -0.3753303
vn 0.9061275 0 -0.3753303
vn 0.9061275 0 -0.3753303
vn 0.9061275 0 -0.3753303
vn 0.6935201 0 -0.6935198
vn 0.6935201 0 -0.6935198
vn 0.6935201 0 -0.6935198
vn 0.6935201 0 -0.6935198
vn 0.3753304 0 -0.9061273
vn 0.3753304 0 -0.9061273
vn 0.3753304 0 -0.9061273
vn 0.3753304 0 -0.9061273
vn -6.705523E-08 0 -0.9807853
vn -6.705523E-08 0 -0.9807853
vn -6.705523E-08 0 -0.9807853
vn -6.705523E-08 0 -0.9807853
vn -0.3753303 0 -0.9061274
vn -0.3753303 0 -0.9061274
vn -0.3753303 0 -0.9061274
vn -0.3753303 0 -0.9061274
vn -0.6935198 0 -0.6935199
vn -0.6935198 0 -0.6935199
vn -0.6935198 0 -0.6935199
vn -0.6935198 0 -0.6935199
vn -0.9061274 0 -0.3753303
vn -0.9061274 0 -0.3753303
vn -0.9061274 0 -0.3753303
vn -0.9061274 0 -0.3753303
vn -0.9807853 0 6.705523E-08
vn -0.9807853 0 6.705523E-08

vt -0.0975452 0
vt -0.0975452 1
vt 0.09754515 0
vt 0.09754515 1
vt -0.09754514 0
vt -0.09754514 1
vt 0.09754517 0
vt 0.09754517 1
vt -0.09754517 0
vt -0.09754517 1
vt 0.09754515 0
vt 0.09754515 1
vt -0.09754513 0
vt -0.09754513 1
vt 0.09754522 0
vt 0.09754522 1
vt -0.09754512 0
vt -0.09754512 1
vt 0.09754517 0
vt 0.09754517 1
vt -0.09754522 0
vt -0.09754522 1
vt 0.09754512 0
vt 0.09754512 1
vt -0.09754512 0
vt -0.09754512 1
vt 0.09754517 0
vt 0.09754517 1
vt -0.09754519 0
vt -0.09754519 1
vt 0.09754521 0
vt 0.09754521 1
vt -0.09754518 0
vt -0.09754518 1
vt 0.0975451 0
vt 0.0975451 1
vt -0.09754512 0
vt -0.09754512 1
vt 0.09754515 0
vt 0.09754515 1
vt -0.09754509 0
vt -0.09754509 1
vt 0.09754521 0
vt 0.09754521 1
vt -0.09754523 0
vt -0.09754523 1
vt 0.09754518 0
vt 0.09754518 1
vt -0.09754522 0
vt -0.09754522 1
vt 0.09754518 0
vt 0.09754518 1
vt -0.09754507 0
vt -0.09754507 1
vt 0.09754506 0
vt 0.09754506 1
vt -0.09754517 0
vt -0.09754517 1
vt 0.09754524 0
vt 0.09754524 1
vt -0.09754519 0
vt -0.09754519 1
vt 0.09754512 0
vt 0.09754512 1

g Cylinder
usemtl Default_Prototype
f 3/3/3 4/4/4 2/2/2 1/1/1
f 7/7/7 8/8/8 6/6/6 5/5/5
f 11/11/11 12/12/12 10/10/10 9/9/9
f 15/15/15 16/16/16 14/14/14 13/13/13
f 19/19/19 20/20/20 18/18/18 17/17/17
f 23/23/23 24/24/24 22/22/22 21/21/21
f 27/27/27 28/28/28 26/26/26 25/25/25
f 31/31/31 32/32/32 30/30/30 29/29/29
f 35/35/35 36/36/36 34/34/34 33/33/33
f 39/39/39 40/40/40 38/38/38 37/37/37
f 43/43/43 44/44/44 42/42/42 41/41/41
f 47/47/47 48/48/48 46/46/46 45/45/45
f 51/51/51 52/52/52 50/50/50 49/49/49
f 55/55/55 56/56/56 54/54/54 53/53/53
f 59/59/59 60/60/60 58/58/58 57/57/57
f 63/63/63 64/64/64 62/62/62 61/61/61

