# Blender v2.78 (sub 0) OBJ File: '4.blend'
# www.blender.org
mtllib Standing_lamp_01.mtl
o Standing_lamp_01_Circle.003
v 0.000249 8.048374 -0.152260
v -0.107343 8.048374 -0.107694
v -0.151910 8.048374 -0.000101
v -0.107343 8.048374 0.107491
v 0.000249 8.048374 0.152057
v 0.107842 8.048374 0.107491
v 0.152408 8.048374 -0.000101
v 0.107842 8.048374 -0.107694
v 0.000249 8.231718 -0.152260
v -0.107343 8.231718 -0.107694
v -0.151910 8.231718 -0.000101
v -0.107343 8.231718 0.107491
v 0.000249 8.231718 0.152057
v 0.107842 8.231718 0.107491
v 0.152408 8.231718 -0.000101
v 0.107842 8.231718 -0.107694
v 0.000249 8.231718 -0.125450
v -0.088386 8.231718 -0.088736
v -0.125099 8.231718 -0.000101
v -0.088386 8.231718 0.088533
v 0.000249 8.231718 0.125247
v 0.088884 8.231718 0.088533
v 0.125597 8.231718 -0.000101
v 0.088884 8.231718 -0.088736
v 0.000249 8.360558 -0.145289
v -0.102415 8.360558 -0.102765
v -0.144939 8.360558 -0.000101
v -0.102415 8.360558 0.102562
v 0.000249 8.360558 0.145087
v 0.102913 8.360558 0.102562
v 0.145437 8.360558 -0.000101
v 0.102913 8.360558 -0.102765
v 0.000249 8.494350 -0.286008
v -0.201918 8.494350 -0.202268
v -0.285658 8.494350 -0.000101
v -0.201918 8.494350 0.202065
v 0.000249 8.494350 0.285806
v 0.202416 8.494350 0.202065
v 0.286156 8.494350 -0.000101
v 0.202416 8.494350 -0.202268
v 0.000249 8.628144 -0.324977
v -0.229473 8.628144 -0.229823
v -0.324626 8.628144 -0.000101
v -0.229473 8.628144 0.229621
v 0.000249 8.628144 0.324774
v 0.229971 8.628144 0.229621
v 0.325125 8.628144 -0.000101
v 0.229971 8.628144 -0.229823
v 0.000249 8.772974 -0.292306
v -0.206371 8.772974 -0.206721
v -0.291956 8.772974 -0.000101
v -0.206371 8.772974 0.206519
v 0.000249 8.772974 0.292104
v 0.206869 8.772974 0.206519
v 0.292454 8.772974 -0.000101
v 0.206869 8.772974 -0.206721
v 0.000249 8.880274 -0.178453
v -0.125865 8.880274 -0.126215
v -0.178103 8.880274 -0.000101
v -0.125865 8.880274 0.126013
v 0.000249 8.880274 0.178251
v 0.126363 8.880274 0.126013
v 0.178601 8.880274 -0.000101
v 0.126363 8.880274 -0.126215
v 0.000249 8.947527 -0.000101
v -0.000000 7.834399 -1.393840
v -0.985594 7.834399 -0.985593
v -1.393840 7.834399 0.000000
v -0.985594 7.834399 0.985594
v 0.000000 7.834399 1.393840
v 0.985594 7.834399 0.985593
v 1.393840 7.834399 -0.000000
v 0.985594 7.834399 -0.985593
v 0.000000 9.963663 -0.934313
v -0.660659 9.963663 -0.660659
v -0.934313 9.963663 0.000000
v -0.660659 9.963663 0.660659
v 0.000000 9.963663 0.934313
v 0.660660 9.963663 0.660659
v 0.934313 9.963663 0.000000
v 0.660660 9.963663 -0.660659
v -0.274770 9.897635 -0.771201
v -0.351030 9.897635 -0.739613
v -0.771201 9.897635 0.274770
v -0.739613 9.897635 0.351030
v 0.274771 9.897635 0.771201
v 0.351030 9.897635 0.739613
v 0.771201 9.897635 -0.274770
v 0.739613 9.897635 -0.351030
v -0.086133 8.161629 -0.303838
v -0.153943 8.161629 -0.275751
v -0.303838 8.161629 0.086133
v -0.275751 8.161629 0.153943
v 0.086133 8.161629 0.303838
v 0.153943 8.161629 0.275751
v 0.303839 8.161629 -0.086133
v 0.275751 8.161629 -0.153943
v -0.040925 8.141945 -0.141802
v -0.071331 8.141945 -0.129208
v -0.141802 8.141945 0.040925
v -0.129208 8.141945 0.071331
v 0.040925 8.141945 0.141802
v 0.071331 8.141945 0.129208
v 0.141802 8.141945 -0.040925
v 0.129208 8.141945 -0.071331
v -0.000000 7.825711 -1.353579
v -0.957125 7.825711 -0.957125
v -1.353579 7.825711 0.000000
v -0.957125 7.825711 0.957125
v 0.000000 7.825711 1.353579
v 0.957125 7.825711 0.957125
v 1.353579 7.825711 -0.000000
v 0.957125 7.825711 -0.957125
v 0.000000 9.954975 -0.894053
v -0.632191 9.954975 -0.632191
v -0.894053 9.954975 0.000000
v -0.632191 9.954975 0.632191
v 0.000000 9.954975 0.894053
v 0.632191 9.954975 0.632190
v 0.894053 9.954975 0.000000
v 0.632191 9.954975 -0.632191
v -0.289892 9.886024 -0.807709
v -0.366152 9.886024 -0.776121
v -0.807709 9.886024 0.289892
v -0.776121 9.886024 0.366152
v 0.289892 9.886024 0.807709
v 0.366152 9.886024 0.776121
v 0.807709 9.886024 -0.289892
v 0.776122 9.886024 -0.366152
v -0.096807 8.131325 -0.329611
v -0.164617 8.131325 -0.301523
v -0.329611 8.131325 0.096807
v -0.301523 8.131325 0.164617
v 0.096807 8.131325 0.329611
v 0.164617 8.131325 0.301523
v 0.329611 8.131325 -0.096807
v 0.301523 8.131325 -0.164617
v -0.043408 8.101271 -0.147795
v -0.073813 8.101271 -0.135201
v -0.147795 8.101271 0.043408
v -0.135201 8.101271 0.073813
v 0.043408 8.101271 0.147795
v 0.073813 8.101271 0.135201
v 0.147796 8.101271 -0.043408
v 0.135201 8.101271 -0.073813
v 0.000000 0.025152 -0.935234
v -0.661311 0.025152 -0.661311
v -0.935234 0.025152 0.000000
v -0.661311 0.025152 0.661311
v 0.000000 0.025152 0.935234
v 0.661311 0.025152 0.661311
v 0.935234 0.025152 -0.000000
v 0.661311 0.025152 -0.661311
v 0.000000 0.219898 -0.820926
v -0.580482 0.219898 -0.580482
v -0.820926 0.219898 0.000000
v -0.580482 0.219898 0.580482
v 0.000000 0.219898 0.820926
v 0.580482 0.219898 0.580482
v 0.820926 0.219898 -0.000000
v 0.580482 0.219898 -0.580482
v 0.000000 0.339895 -0.138738
v -0.098102 0.339895 -0.098102
v -0.138738 0.339895 0.000000
v -0.098102 0.339895 0.098102
v 0.000000 0.339895 0.138738
v 0.098103 0.339895 0.098102
v 0.138738 0.339895 -0.000000
v 0.098103 0.339895 -0.098102
v 0.000000 7.725065 -0.138738
v -0.098102 7.725065 -0.098102
v -0.138738 7.725065 0.000000
v -0.098102 7.725065 0.098102
v 0.000000 7.725065 0.138738
v 0.098103 7.725065 0.098102
v 0.138738 7.725065 -0.000000
v 0.098103 7.725065 -0.098102
v 0.000000 7.812052 -0.197968
v -0.139985 7.812052 -0.139985
v -0.197968 7.812052 0.000000
v -0.139985 7.812052 0.139985
v 0.000000 7.812052 0.197968
v 0.139985 7.812052 0.139985
v 0.197969 7.812052 -0.000000
v 0.139985 7.812052 -0.139985
v 0.000000 8.184853 -0.197968
v -0.139985 8.184853 -0.139985
v -0.197968 8.184853 0.000000
v -0.139985 8.184853 0.139985
v 0.000000 8.184853 0.197968
v 0.139985 8.184853 0.139985
v 0.197969 8.184853 -0.000000
v 0.139985 8.184853 -0.139985
v 0.000000 8.184853 -0.000000
v 0.000000 0.000000 0.000000
vn 0.3364 0.4767 -0.8122
vn 0.8122 0.4767 0.3364
vn -0.3364 0.4767 0.8122
vn -0.8122 0.4767 -0.3364
vn 0.8122 0.4767 -0.3364
vn 0.3364 0.4767 0.8122
vn -0.8122 0.4767 0.3364
vn -0.3364 0.4767 -0.8122
vn -0.1728 0.9824 -0.0716
vn 0.1728 0.9824 -0.0716
vn 0.0716 0.9824 0.1728
vn -0.1728 0.9824 0.0716
vn -0.0716 0.9824 -0.1728
vn 0.0716 0.9824 -0.1728
vn 0.1728 0.9824 0.0716
vn -0.0716 0.9824 0.1728
vn 0.3827 0.0000 -0.9239
vn 0.9239 0.0000 0.3827
vn -0.3827 0.0000 0.9239
vn -0.9239 0.0000 -0.3827
vn 0.9239 0.0000 -0.3827
vn 0.3827 0.0000 0.9239
vn -0.9239 0.0000 0.3827
vn -0.3827 0.0000 -0.9239
vn -0.7820 -0.5325 0.3239
vn -0.3239 -0.5325 -0.7820
vn 0.3239 -0.5325 -0.7820
vn 0.7820 -0.5325 0.3239
vn -0.3239 -0.5325 0.7820
vn -0.7820 -0.5325 -0.3239
vn 0.7820 -0.5325 -0.3239
vn 0.3239 -0.5325 0.7820
vn 0.0000 1.0000 0.0000
vn 0.0111 -0.9996 -0.0269
vn 0.0269 -0.9996 0.0111
vn -0.0111 -0.9996 0.0269
vn -0.0269 -0.9996 -0.0111
vn 0.0269 -0.9996 -0.0111
vn 0.0111 -0.9996 0.0269
vn -0.0269 -0.9996 0.0111
vn -0.0111 -0.9996 -0.0269
vn 0.9060 0.1955 -0.3753
vn 0.3753 0.1955 0.9060
vn -0.9060 0.1955 0.3753
vn -0.3753 0.1955 -0.9060
vn 0.3753 0.1955 -0.9060
vn 0.9060 0.1955 0.3753
vn -0.3753 0.1955 0.9060
vn -0.9060 0.1955 -0.3753
vn -0.9060 -0.1955 0.3753
vn -0.3753 -0.1955 -0.9060
vn 0.9060 -0.1955 -0.3753
vn 0.3753 -0.1955 0.9060
vn -0.3753 -0.1955 0.9060
vn -0.9060 -0.1955 -0.3753
vn 0.3753 -0.1955 -0.9060
vn 0.9060 -0.1955 0.3753
vn -0.0870 -0.9738 -0.2101
vn -0.2101 -0.9738 -0.0870
vn -0.2101 -0.9738 0.0870
vn -0.0870 -0.9738 0.2101
vn 0.0870 -0.9738 0.2101
vn 0.2101 -0.9738 0.0870
vn 0.2101 -0.9738 -0.0870
vn 0.0870 -0.9738 -0.2101
vn 0.0870 0.9738 0.2101
vn 0.2101 0.9738 0.0870
vn 0.2101 0.9738 -0.0870
vn 0.0870 0.9738 -0.2101
vn -0.0870 0.9738 -0.2101
vn -0.2101 0.9738 -0.0870
vn -0.2101 0.9738 0.0870
vn -0.0870 0.9738 0.2101
vn -0.8872 0.2788 0.3675
vn 0.8872 0.2788 -0.3675
vn -0.3675 0.2788 -0.8872
vn 0.3675 0.2788 0.8872
vn -0.0448 0.9931 -0.1081
vn 0.0448 0.9931 0.1082
vn -0.1081 0.9931 0.0448
vn 0.1081 0.9931 -0.0448
vn 0.8864 -0.2819 -0.3672
vn -0.8864 -0.2819 0.3672
vn 0.3672 -0.2819 0.8864
vn -0.3672 -0.2819 -0.8864
vn 0.0603 -0.9875 0.1455
vn -0.0603 -0.9875 -0.1455
vn 0.1455 -0.9875 -0.0603
vn -0.1455 -0.9875 0.0603
vn -0.1079 0.9594 -0.2604
vn -0.2604 0.9594 0.1079
vn 0.1079 0.9594 0.2604
vn 0.2604 0.9594 -0.1079
vn 0.3814 -0.0022 0.9244
vn -0.3839 -0.0022 -0.9234
vn -0.3814 -0.0022 -0.9244
vn 0.3839 -0.0022 0.9234
vn -0.9244 -0.0022 0.3814
vn 0.9234 -0.0022 -0.3839
vn 0.9244 -0.0022 -0.3814
vn -0.9234 -0.0022 0.3839
vn 0.3779 -0.1575 0.9123
vn 0.9123 -0.1575 -0.3779
vn -0.3779 -0.1575 -0.9123
vn -0.9123 -0.1575 0.3779
vn -0.9580 -0.0513 0.2821
vn 0.8769 -0.0513 -0.4779
vn 0.9580 -0.0513 -0.2821
vn -0.8769 -0.0513 0.4779
vn 0.2821 -0.0513 0.9580
vn -0.4779 -0.0513 -0.8769
vn -0.2822 -0.0513 -0.9580
vn 0.4779 -0.0513 0.8769
vn -0.9147 -0.1409 0.3789
vn -0.3789 -0.1408 -0.9147
vn 0.3789 -0.1408 -0.9147
vn 0.9147 -0.1408 0.3789
vn -0.3789 -0.1408 0.9147
vn -0.9147 -0.1409 -0.3789
vn 0.9147 -0.1408 -0.3789
vn 0.3789 -0.1408 0.9147
vn 0.6626 -0.6969 -0.2745
vn 0.2745 -0.6969 0.6626
vn -0.6626 -0.6969 0.2745
vn -0.2745 -0.6969 -0.6626
vn 0.2745 -0.6969 -0.6626
vn 0.6626 -0.6969 0.2745
vn -0.2745 -0.6969 0.6626
vn -0.6626 -0.6969 -0.2745
vn -0.3695 -0.2598 0.8921
vn -0.8921 -0.2598 -0.3695
vn 0.8921 -0.2598 -0.3695
vn 0.3695 -0.2598 0.8921
vn -0.8921 -0.2598 0.3695
vn -0.3695 -0.2598 -0.8921
vn 0.3695 -0.2598 -0.8921
vn 0.8921 -0.2598 0.3695
vn 0.3746 0.2040 -0.9044
vn 0.9044 0.2040 0.3746
vn -0.3746 0.2040 0.9044
vn -0.9044 0.2040 -0.3746
vn 0.9044 0.2040 -0.3746
vn 0.3746 0.2040 0.9044
vn -0.9044 0.2040 0.3746
vn -0.3746 0.2040 -0.9044
vn 0.2733 0.7000 0.6597
vn -0.6597 0.7000 0.2733
vn -0.2733 0.7000 -0.6597
vn 0.2733 0.7000 -0.6597
vn 0.6597 0.7000 0.2733
vn -0.2733 0.7000 0.6597
vn -0.6597 0.7000 -0.2733
vn 0.6597 0.7000 -0.2733
vn 0.3491 0.9259 -0.1446
vn 0.1446 0.9259 0.3491
vn -0.3491 0.9259 0.1446
vn -0.1446 0.9259 -0.3491
vn 0.1446 0.9259 -0.3491
vn 0.3491 0.9259 0.1446
vn -0.1446 0.9258 0.3491
vn -0.3491 0.9259 -0.1446
usemtl 795548
s off
f 153//1 146//1 154//1 161//1
f 151//2 152//2 160//2 159//2
f 149//3 150//3 158//3 157//3
f 147//4 148//4 156//4 155//4
f 152//5 153//5 161//5 160//5
f 150//6 151//6 159//6 158//6
f 148//7 149//7 157//7 156//7
f 146//8 147//8 155//8 154//8
f 155//9 156//9 164//9 163//9
f 160//10 161//10 169//10 168//10
f 158//11 159//11 167//11 166//11
f 156//12 157//12 165//12 164//12
f 154//13 155//13 163//13 162//13
f 161//14 154//14 162//14 169//14
f 159//15 160//15 168//15 167//15
f 157//16 158//16 166//16 165//16
f 169//17 162//17 170//17 177//17
f 167//18 168//18 176//18 175//18
f 165//19 166//19 174//19 173//19
f 163//20 164//20 172//20 171//20
f 168//21 169//21 177//21 176//21
f 166//22 167//22 175//22 174//22
f 164//23 165//23 173//23 172//23
f 162//24 163//24 171//24 170//24
f 172//25 173//25 181//25 180//25
f 170//26 171//26 179//26 178//26
f 177//27 170//27 178//27 185//27
f 175//28 176//28 184//28 183//28
f 173//29 174//29 182//29 181//29
f 171//30 172//30 180//30 179//30
f 176//31 177//31 185//31 184//31
f 174//32 175//32 183//32 182//32
f 184//21 185//21 193//21 192//21
f 182//22 183//22 191//22 190//22
f 180//23 181//23 189//23 188//23
f 178//24 179//24 187//24 186//24
f 185//17 178//17 186//17 193//17
f 183//18 184//18 192//18 191//18
f 181//19 182//19 190//19 189//19
f 179//20 180//20 188//20 187//20
f 189//33 190//33 194//33
f 187//33 188//33 194//33
f 192//33 193//33 194//33
f 190//33 191//33 194//33
f 188//33 189//33 194//33
f 186//33 187//33 194//33
f 193//33 186//33 194//33
f 191//33 192//33 194//33
f 146//34 153//34 195//34
f 152//35 151//35 195//35
f 150//36 149//36 195//36
f 148//37 147//37 195//37
f 153//38 152//38 195//38
f 151//39 150//39 195//39
f 149//40 148//40 195//40
f 147//41 146//41 195//41
usemtl DD9944
f 72//42 73//42 81//42 80//42
f 70//43 71//43 79//43 78//43
f 68//44 69//44 77//44 76//44
f 66//45 67//45 75//45 74//45
f 73//46 66//46 74//46 81//46
f 71//47 72//47 80//47 79//47
f 69//48 70//48 78//48 77//48
f 67//49 68//49 76//49 75//49
f 112//50 120//50 121//50 113//50
f 110//51 118//51 119//51 111//51
f 108//52 116//52 117//52 109//52
f 106//53 114//53 115//53 107//53
f 113//54 121//54 114//54 106//54
f 111//55 119//55 120//55 112//55
f 109//56 117//56 118//56 110//56
f 107//57 115//57 116//57 108//57
f 67//58 66//58 106//58 107//58
f 68//59 67//59 107//59 108//59
f 69//60 68//60 108//60 109//60
f 70//61 69//61 109//61 110//61
f 71//62 70//62 110//62 111//62
f 72//63 71//63 111//63 112//63
f 73//64 72//64 112//64 113//64
f 66//65 73//65 113//65 106//65
f 74//66 75//66 115//66 114//66
f 75//67 76//67 116//67 115//67
f 76//68 77//68 117//68 116//68
f 77//69 78//69 118//69 117//69
f 78//70 79//70 119//70 118//70
f 79//71 80//71 120//71 119//71
f 80//72 81//72 121//72 120//72
f 81//73 74//73 114//73 121//73
usemtl 455A64
f 5//22 6//22 14//22 13//22
f 3//23 4//23 12//23 11//23
f 1//24 2//24 10//24 9//24
f 8//17 1//17 9//17 16//17
f 6//18 7//18 15//18 14//18
f 4//19 5//19 13//19 12//19
f 2//20 3//20 11//20 10//20
f 7//21 8//21 16//21 15//21
f 16//33 9//33 17//33 24//33
f 14//33 15//33 23//33 22//33
f 12//33 13//33 21//33 20//33
f 10//33 11//33 19//33 18//33
f 15//33 16//33 24//33 23//33
f 13//33 14//33 22//33 21//33
f 11//33 12//33 20//33 19//33
f 9//33 10//33 18//33 17//33
f 88//74 89//74 97//74 96//74
f 84//75 85//75 93//75 92//75
f 86//76 87//76 95//76 94//76
f 82//77 83//77 91//77 90//77
f 94//78 95//78 103//78 102//78
f 90//79 91//79 99//79 98//79
f 96//80 97//80 105//80 104//80
f 92//81 93//81 101//81 100//81
f 128//82 136//82 137//82 129//82
f 124//83 132//83 133//83 125//83
f 126//84 134//84 135//84 127//84
f 122//85 130//85 131//85 123//85
f 134//86 142//86 143//86 135//86
f 130//87 138//87 139//87 131//87
f 136//88 144//88 145//88 137//88
f 132//89 140//89 141//89 133//89
f 83//90 82//90 122//90 123//90
f 85//91 84//91 124//91 125//91
f 87//92 86//92 126//92 127//92
f 89//93 88//93 128//93 129//93
f 88//94 96//94 136//94 128//94
f 97//95 89//95 129//95 137//95
f 84//96 92//96 132//96 124//96
f 93//97 85//97 125//97 133//97
f 86//98 94//98 134//98 126//98
f 95//99 87//99 127//99 135//99
f 82//100 90//100 130//100 122//100
f 91//101 83//101 123//101 131//101
f 98//102 99//102 139//102 138//102
f 100//103 101//103 141//103 140//103
f 102//104 103//104 143//104 142//104
f 104//105 105//105 145//105 144//105
f 94//106 102//106 142//106 134//106
f 103//107 95//107 135//107 143//107
f 90//108 98//108 138//108 130//108
f 99//109 91//109 131//109 139//109
f 96//110 104//110 144//110 136//110
f 105//111 97//111 137//111 145//111
f 92//112 100//112 140//112 132//112
f 101//113 93//113 133//113 141//113
usemtl FFEB3B
f 19//114 20//114 28//114 27//114
f 17//115 18//115 26//115 25//115
f 24//116 17//116 25//116 32//116
f 22//117 23//117 31//117 30//117
f 20//118 21//118 29//118 28//118
f 18//119 19//119 27//119 26//119
f 23//120 24//120 32//120 31//120
f 21//121 22//121 30//121 29//121
f 31//122 32//122 40//122 39//122
f 29//123 30//123 38//123 37//123
f 27//124 28//124 36//124 35//124
f 25//125 26//125 34//125 33//125
f 32//126 25//126 33//126 40//126
f 30//127 31//127 39//127 38//127
f 28//128 29//128 37//128 36//128
f 26//129 27//129 35//129 34//129
f 36//130 37//130 45//130 44//130
f 34//131 35//131 43//131 42//131
f 39//132 40//132 48//132 47//132
f 37//133 38//133 46//133 45//133
f 35//134 36//134 44//134 43//134
f 33//135 34//135 42//135 41//135
f 40//136 33//136 41//136 48//136
f 38//137 39//137 47//137 46//137
f 48//138 41//138 49//138 56//138
f 46//139 47//139 55//139 54//139
f 44//140 45//140 53//140 52//140
f 42//141 43//141 51//141 50//141
f 47//142 48//142 56//142 55//142
f 45//143 46//143 54//143 53//143
f 43//144 44//144 52//144 51//144
f 41//145 42//145 50//145 49//145
f 53//146 54//146 62//146 61//146
f 51//147 52//147 60//147 59//147
f 49//148 50//148 58//148 57//148
f 56//149 49//149 57//149 64//149
f 54//150 55//150 63//150 62//150
f 52//151 53//151 61//151 60//151
f 50//152 51//152 59//152 58//152
f 55//153 56//153 64//153 63//153
f 63//154 64//154 65//154
f 61//155 62//155 65//155
f 59//156 60//156 65//156
f 57//157 58//157 65//157
f 64//158 57//158 65//158
f 62//159 63//159 65//159
f 60//160 61//160 65//160
f 58//161 59//161 65//161
